HIERARCHY
ROOT hips
{
  OFFSET 0 10.074487846421558 1.314567655973056
  CHANNELS 6 Xposition Yposition Zposition Yrotation Xrotation Zrotation
  JOINT spine
  {
    OFFSET -7.042773748992335e-31 0.5690686926897363 0
    CHANNELS 3 Yrotation Xrotation Zrotation
    JOINT chest
    {
      OFFSET 0 1.2435964857087873 0
      CHANNELS 3 Yrotation Xrotation Zrotation
      JOINT upperChest
      {
        OFFSET 0 1.194994586872362 0
        CHANNELS 3 Yrotation Xrotation Zrotation
        JOINT neck
        {
          OFFSET 0 1.515103653293861 0
          CHANNELS 3 Yrotation Xrotation Zrotation
          JOINT head
          {
            OFFSET 0 0.8111851616465653 0
            CHANNELS 3 Yrotation Xrotation Zrotation
            JOINT leftEye
            {
              OFFSET 0.27141371691966987 0.7490044407698551 0.18219031050045686
              CHANNELS 3 Yrotation Xrotation Zrotation
              End Site
              {
                OFFSET 0.27141371691966987 0.7490044407698551 0.18219031050045686
              }
            }
            JOINT rightEye
            {
              OFFSET -0.2714136877644943 0.7490044019380786 0.18219040411850668
              CHANNELS 3 Yrotation Xrotation Zrotation
              End Site
              {
                OFFSET -0.2714136877644943 0.7490044019380786 0.18219040411850668
              }
            }
          }
        }
        JOINT leftShoulder
        {
          OFFSET 0.4137993136083964 1.1593397335613034 0
          CHANNELS 3 Yrotation Xrotation Zrotation
          JOINT leftUpperArm
          {
            OFFSET 1.0096991868951026 0 0
            CHANNELS 3 Yrotation Xrotation Zrotation
            JOINT leftLowerArm
            {
              OFFSET 2.418380967671622 0 0
              CHANNELS 3 Yrotation Xrotation Zrotation
              JOINT leftHand
              {
                OFFSET 2.361538296260114 0 0
                CHANNELS 3 Yrotation Xrotation Zrotation
                JOINT leftIndexProximal
                {
                  OFFSET 0.7243699271447109 0.08118285989887508 0.2022042461579805
                  CHANNELS 3 Yrotation Xrotation Zrotation
                  JOINT leftIndexIntermediate
                  {
                    OFFSET 0.36553107045252053 -0.010567764853200323 -0.014102670024158437
                    CHANNELS 3 Yrotation Xrotation Zrotation
                    JOINT leftIndexDistal
                    {
                      OFFSET 0.22505120770060527 -0.007821041598631284 -0.007511611613336286
                      CHANNELS 3 Yrotation Xrotation Zrotation
                      End Site
                      {
                        OFFSET 0.22505120770060527 -0.007821041598631284 -0.007511611613336286
                      }
                    }
                  }
                }
                JOINT leftLittleProximal
                {
                  OFFSET 0.6721063881632002 0.08118279568569564 -0.3209324945517917
                  CHANNELS 3 Yrotation Xrotation Zrotation
                  JOINT leftLittleIntermediate
                  {
                    OFFSET 0.34587329423120616 5.3042709780015684e-8 -5.929537746918179e-8
                    CHANNELS 3 Yrotation Xrotation Zrotation
                    JOINT leftLittleDistal
                    {
                      OFFSET 0.1992782500022232 0.0030983716482184676 0.0038310952896712935
                      CHANNELS 3 Yrotation Xrotation Zrotation
                      End Site
                      {
                        OFFSET 0.1992782500022232 0.0030983716482184676 0.0038310952896712935
                      }
                    }
                  }
                }
                JOINT leftMiddleProximal
                {
                  OFFSET 0.7301229696860206 0.08118412848995638 0.022516891543707507
                  CHANNELS 3 Yrotation Xrotation Zrotation
                  JOINT leftMiddleIntermediate
                  {
                    OFFSET 0.4076277831942017 -0.000001240188283180288 -1.6203245635504349e-7
                    CHANNELS 3 Yrotation Xrotation Zrotation
                    JOINT leftMiddleDistal
                    {
                      OFFSET 0.2514739255593972 0.0000013850839168938478 -1.8644847207816007e-8
                      CHANNELS 3 Yrotation Xrotation Zrotation
                      End Site
                      {
                        OFFSET 0.2514739255593972 0.0000013850839168938478 -1.8644847207816007e-8
                      }
                    }
                  }
                }
                JOINT leftRingProximal
                {
                  OFFSET 0.7218060861525873 0.08118280646416753 -0.1494689818508163
                  CHANNELS 3 Yrotation Xrotation Zrotation
                  JOINT leftRingIntermediate
                  {
                    OFFSET 0.3781267508900358 0.000001373626195677602 -1.4143108284514483e-7
                    CHANNELS 3 Yrotation Xrotation Zrotation
                    JOINT leftRingDistal
                    {
                      OFFSET 0.21814333268795483 -0.0027137626495670197 -0.004991775417842292
                      CHANNELS 3 Yrotation Xrotation Zrotation
                      End Site
                      {
                        OFFSET 0.21814333268795483 -0.0027137626495670197 -0.004991775417842292
                      }
                    }
                  }
                }
                JOINT leftThumbProximal
                {
                  OFFSET 0.10743676110519984 -0.16423092885053192 -0.07708859146227388
                  CHANNELS 3 Yrotation Xrotation Zrotation
                  JOINT leftThumbIntermediate
                  {
                    OFFSET 0.40350402100066307 -0.01735099334274981 0.315629965828783
                    CHANNELS 3 Yrotation Xrotation Zrotation
                    JOINT leftThumbDistal
                    {
                      OFFSET 0.2320014489535681 -0.01842351809041043 0.21271298411519196
                      CHANNELS 3 Yrotation Xrotation Zrotation
                      End Site
                      {
                        OFFSET 0.2320014489535681 -0.01842351809041043 0.21271298411519196
                      }
                    }
                  }
                }
              }
            }
          }
        }
        JOINT rightShoulder
        {
          OFFSET -0.41379931360839656 1.1593397335613034 0
          CHANNELS 3 Yrotation Xrotation Zrotation
          JOINT rightUpperArm
          {
            OFFSET -1.0096991868951024 0 0
            CHANNELS 3 Yrotation Xrotation Zrotation
            JOINT rightLowerArm
            {
              OFFSET -2.4183809676716232 0 0
              CHANNELS 3 Yrotation Xrotation Zrotation
              JOINT rightHand
              {
                OFFSET -2.3615382962601132 0 0
                CHANNELS 3 Yrotation Xrotation Zrotation
                JOINT rightIndexProximal
                {
                  OFFSET -0.7243699271447109 0.08118285989887508 0.2022042461579805
                  CHANNELS 3 Yrotation Xrotation Zrotation
                  JOINT rightIndexIntermediate
                  {
                    OFFSET -0.36553107045252053 -0.010567764853200323 -0.014102670024158437
                    CHANNELS 3 Yrotation Xrotation Zrotation
                    JOINT rightIndexDistal
                    {
                      OFFSET -0.22505120770060527 -0.007821041598631284 -0.007511611613336286
                      CHANNELS 3 Yrotation Xrotation Zrotation
                      End Site
                      {
                        OFFSET -0.22505120770060527 -0.007821041598631284 -0.007511611613336286
                      }
                    }
                  }
                }
                JOINT rightLittleProximal
                {
                  OFFSET -0.6721063881632002 0.08118279568569564 -0.3209324945517917
                  CHANNELS 3 Yrotation Xrotation Zrotation
                  JOINT rightLittleIntermediate
                  {
                    OFFSET -0.34587329423120616 5.3042709780015684e-8 -5.929537746918179e-8
                    CHANNELS 3 Yrotation Xrotation Zrotation
                    JOINT rightLittleDistal
                    {
                      OFFSET -0.1992782500022232 0.0030983716482184676 0.0038310952896712935
                      CHANNELS 3 Yrotation Xrotation Zrotation
                      End Site
                      {
                        OFFSET -0.1992782500022232 0.0030983716482184676 0.0038310952896712935
                      }
                    }
                  }
                }
                JOINT rightMiddleProximal
                {
                  OFFSET -0.7301229696860206 0.08118412848995638 0.022516891543707507
                  CHANNELS 3 Yrotation Xrotation Zrotation
                  JOINT rightMiddleIntermediate
                  {
                    OFFSET -0.4076277831942017 -0.000001240188283180288 -1.6203245635504349e-7
                    CHANNELS 3 Yrotation Xrotation Zrotation
                    JOINT rightMiddleDistal
                    {
                      OFFSET -0.2514739255593972 0.0000013850839168938478 -1.8644847207816007e-8
                      CHANNELS 3 Yrotation Xrotation Zrotation
                      End Site
                      {
                        OFFSET -0.2514739255593972 0.0000013850839168938478 -1.8644847207816007e-8
                      }
                    }
                  }
                }
                JOINT rightRingProximal
                {
                  OFFSET -0.7218060861525873 0.08118280646416753 -0.1494689818508163
                  CHANNELS 3 Yrotation Xrotation Zrotation
                  JOINT rightRingIntermediate
                  {
                    OFFSET -0.3781267508900358 0.000001373626195677602 -1.4143108284514483e-7
                    CHANNELS 3 Yrotation Xrotation Zrotation
                    JOINT rightRingDistal
                    {
                      OFFSET -0.21814333268795483 -0.0027137626495670197 -0.004991775417842292
                      CHANNELS 3 Yrotation Xrotation Zrotation
                      End Site
                      {
                        OFFSET -0.21814333268795483 -0.0027137626495670197 -0.004991775417842292
                      }
                    }
                  }
                }
                JOINT rightThumbProximal
                {
                  OFFSET -0.10743676110519984 -0.16423092885053192 -0.07708859146227388
                  CHANNELS 3 Yrotation Xrotation Zrotation
                  JOINT rightThumbIntermediate
                  {
                    OFFSET -0.40350402100066307 -0.01735099334274981 0.315629965828783
                    CHANNELS 3 Yrotation Xrotation Zrotation
                    JOINT rightThumbDistal
                    {
                      OFFSET -0.2320014489535681 -0.01842351809041043 0.21271298411519196
                      CHANNELS 3 Yrotation Xrotation Zrotation
                      End Site
                      {
                        OFFSET -0.2320014489535681 -0.01842351809041043 0.21271298411519196
                      }
                    }
                  }
                }
              }
            }
          }
        }
      }
    }
  }
  JOINT leftUpperLeg
  {
    OFFSET 0.8487163290887698 -0.43932186100277326 0
    CHANNELS 3 Yrotation Xrotation Zrotation
    JOINT leftLowerLeg
    {
      OFFSET 0 -3.882816707004296 0
      CHANNELS 3 Yrotation Xrotation Zrotation
      JOINT leftFoot
      {
        OFFSET 0 -4.570431027442807 0.004629272230691511
        CHANNELS 3 Yrotation Xrotation Zrotation
        JOINT leftToes
        {
          OFFSET 0 -0.698875637876343 1.214565366696912
          CHANNELS 3 Yrotation Xrotation Zrotation
          End Site
          {
            OFFSET 0 -0.698875637876343 1.214565366696912
          }
        }
      }
    }
  }
  JOINT rightUpperLeg
  {
    OFFSET -0.8487163290887698 -0.43932186100277326 0
    CHANNELS 3 Yrotation Xrotation Zrotation
    JOINT rightLowerLeg
    {
      OFFSET 0 -3.882816707004296 0
      CHANNELS 3 Yrotation Xrotation Zrotation
      JOINT rightFoot
      {
        OFFSET 0 -4.570431027442807 0.004629272230691511
        CHANNELS 3 Yrotation Xrotation Zrotation
        JOINT rightToes
        {
          OFFSET 0 -0.698875637876343 1.214565366696912
          CHANNELS 3 Yrotation Xrotation Zrotation
          End Site
          {
            OFFSET 0 -0.698875637876343 1.214565366696912
          }
        }
      }
    }
  }
}
MOTION
Frames: 4
Frame Time: 0.03333333333333333
-0.02670728787779808 -1.4854470901959722 0.017463406547904015 -3.0178244021950396 -1.6579159154431404 0.1545312568947315 0.7821862065896688 1.0148921827268047 0.00901571821350052 2.162841825433703 6.128005885473249 1.5134640135708708 0 0 0 -0.37446487547003454 1.9647431670857654 2.93443140073541 3.3011049134610024 -8.213012668588512 -6.4315330641997805 0 0 0 0 0 0 13.876173089804245 -7.063268617617369 40.75612670101537 -78.5949022252381 -62.72744182894667 79.35280296007737 -60.99960771340609 0.381317628709008 0.6473371828391397 -19.10985708935887 -1.1151216187162576 7.157512307892261 -0.3464707833798203 -2.684258340660625 -34.287838288896786 1.3906786686275483 0.19225680568694195 -15.7443409662209 -0.8701215309298561 0.07441070974730449 9.775347668168196 5.151814535196974 -4.006996065584538 -14.886327931806731 2.725365375497747 0.7845332129641838 -32.11436252017765 1.0180891132916465 0.10212216772496774 -11.45816727143428 -1.360512067473266 -2.4553560310686295 -27.221089435012434 1.5677481274475709 0.24564634493261858 -17.811397576724655 0.5526088989631349 0.029867628185545392 -6.1903429712761 0.05228938496841749 -1.4583090277671875 -24.309534311773493 1.7902440628094023 0.32281218948760426 -20.44335927782945 1.3940085359232082 0.19321294419886975 -15.78303549745189 -3.398860629608453 -6.140741982945213 18.406248684321397 30.01911752484952 19.436478480866672 3.214398659240709 -16.76079167286293 -0.699431837403548 8.144709460398797 -12.917425471961444 -6.350291206027108 -39.49144512249653 120.84880499597449 -58.33796370531333 -107.38223129495626 73.39083076244285 0.5285532545679984 -0.7092332274779457 1.7600247051668056 -9.898311186297255 -20.38613461914117 4.8887650701800505 0.4972405981636457 -2.3787044889503135 -2.346325634922264 0.7788166130435709 36.720084606219814 -0.5785939817263681 0.042911774710043725 8.480654395673074 -8.814739518717694 -1.005417451277312 -8.973570930311094 -1.3806642919527279 0.25094843578639014 20.602788560873126 -0.9120012189598685 0.10747494390656422 13.44168505284076 -0.90452217518757 0.1628801140485539 -5.463185003298797 -2.1814851073379917 0.6623080445488889 33.77383200022686 -1.095468499530365 0.15605491435937585 16.213110509529862 -5.409999189781409 -0.07979936035790253 -2.4030929352263044 -1.1890073502830274 0.18450579307911882 17.64098600925575 -1.1878708270221001 0.18414445819393346 17.623487968054185 -2.071248940344729 -6.399403841550337 -19.55959535832932 6.066915479155679 9.36994894891856 -9.734790289957646 -18.590975030810014 -2.9273606225621465 -4.86580238336407 3.4901937805495633 -19.811492864828395 26.032586702545892 -12.91486315878227 41.85494525531323 1.2257649210406125 -4.248223348700539 -16.790381280788466 -19.056455373521906 0.2565837944891178 -3.938489001502695 -5.727086677271902 6.156686306774773 -20.873371295391014 -21.042187461183584 10.596385381452672 52.39415983086813 -1.3805275517918327 5.597017042060897 -22.086817146735612 12.810021955980393 -0.13474985182152963 -9.249341741204075 4.327290851581605
-0.025140533223748207 -1.4554998093121831 0.015767991542816162 -3.011548913307635 -1.6123422363918796 0.15608994281861602 0.7780862415794265 0.9444061692864532 -0.04689525496577858 2.128637876534289 5.881607897953405 1.3729904518126568 0 0 0 -0.4588254956987444 1.2849374719222022 2.8041532681955923 2.736004440833258 -7.599994739885774 -6.398949579584259 0 0 0 0 0 0 13.434940446393403 -6.424395593076008 38.61974757655969 -66.23412774641513 -61.945335236977385 67.39622248510796 -55.88237169366345 0.3250117323122259 0.6127673478483786 -18.273070766843848 -4.150624817643527 9.32003500678969 0.464578408806329 -2.443661025769375 -36.630550957000295 1.4462075429295311 0.20824565586872992 -16.39002735315812 -0.6802668149328919 0.045360748434884406 7.628039901965599 4.267651373149854 -4.134991928977934 -17.373161064327544 2.724608620992168 0.7840427807800795 -32.10440694033814 1.0181054391606303 0.1021430185113613 -11.45841440891301 -0.7306006086829594 -2.5113649590168525 -30.226548227307028 1.597801554349785 0.25538415334606795 -18.164508944540746 0.5737834603378502 0.03222030186489127 -6.42861230273884 0.3393013810393644 -1.5405164184509315 -26.653043464916895 1.863825322156419 0.35086001918658494 -21.323254183404654 1.431106045822771 0.2038594187565785 -16.214314695030787 -4.300758971302417 -4.780800713743125 13.699621100469411 28.807818683034505 19.07104721556317 3.285790482331131 -13.429624736494256 -0.0318241775115891 10.749158545677563 -12.74313916620873 -5.840995433809317 -37.070193701719326 109.4628547105802 -59.93851534277181 -96.72537903446171 65.18495644279353 0.4295083557377396 -0.6717825893395049 1.960474363719068 -14.061272327063978 -17.42743372268161 4.836554821487947 -0.2773533741942635 3.6934248244127077 -2.362214643705691 0.7906981478868688 37.00941221742962 -0.5829800428357181 0.04356118981484518 8.545655165959365 -7.124109403379195 -0.5284440202551759 -5.599135508178556 -1.5155714410193213 0.30451714684627706 22.72224651964304 -0.9406632881509922 0.1144428438279988 13.872301868850833 0.09044368273560317 0.06194518544555935 -0.2430769548494633 -2.207715361357507 0.6800051049595168 34.23529777856877 -1.1129785099628522 0.16117798941661865 16.479659677680008 -4.1663149828152255 0.10068260305124059 1.5681115418911094 -1.306729144392144 0.2240109519235576 19.45393617546255 -1.1986301522618354 0.18758218252854478 17.78837827428796 -0.07011840979195383 -5.486775721627715 -17.663337436188076 0.17558732933110324 11.025951176691892 -9.352977806186056 -15.861628931934456 -1.4121666544796692 -7.27915577921718 3.446117713915766 -20.25031622209641 26.098991836412868 -12.351925075283672 42.11074270606918 1.565839567060177 -5.695742642983379 -15.314160484566765 -19.180400706336563 0.17254757835782256 -5.075097824199481 -4.8206479393458 5.617335710340562 -21.39473058532442 -21.035598151591124 10.927988947887247 52.33540270378679 -1.1798334985007455 6.555780435043749 -20.333163151562264 12.695496170214804 -0.1797831826583879 -10.312367056799856 4.888776040451696
-0.013478797860443592 -1.2670985870831792 0.003292001085355878 -2.9616875061067884 -1.327059732914191 0.13332170895583112 0.7335335944343384 0.7343396651117557 -0.0937281850552882 2.0054603087565037 5.267748091749081 1.131080002977025 0 0 0 -0.6242477674053463 -0.19487010166924135 2.598743836596457 1.6808732084829021 -6.320645143122213 -6.482725192467649 0 0 0 0 0 0 12.799059420664058 -5.476173315324597 34.20018487121804 -45.42643627559151 -56.722557664435676 46.90660907680269 -45.438090256692625 0.2208034869323191 0.5273671120884927 -17.402136790102173 -10.809492208717533 13.050575322952485 1.8996184939581964 -1.8894763035610742 -41.24399007022808 1.5527214976937997 0.24083912909508887 -17.634863488518008 -0.3173088790563181 0.009841564761838988 3.549918293668539 2.527909904445351 -4.708149200730606 -21.95350721824663 2.728255293392113 0.7863514947911149 -32.15266254178515 1.0213582605656923 0.10278851911091291 -11.495573322726617 0.4805512024164196 -2.5045566364741414 -36.18168251662098 1.6738212127263308 0.28100132548557244 -19.061130072299434 0.6173016684130813 0.0373051685311821 -6.918284706914456 0.756800767109991 -1.7514199080079282 -31.188961140917204 2.0229041448963705 0.41607025967101663 -23.244418182625438 1.508782872319585 0.227093525559088 -17.120373445559725 -6.442711647984915 -1.8890026285963963 4.476204519538457 26.345118204702977 18.377290946248582 3.4554558720394746 -6.642836031092476 1.1470045375835098 15.930943103537906 -12.532449275309856 -5.051724204192526 -32.151575955264704 84.72047368572538 -59.29987766468164 -73.26729385237836 48.728803803966116 0.25190926055475976 -0.5562568294113854 0.9450342448834718 -22.935783475525515 -11.112572634604456 4.825596710862943 -1.8899724024114577 14.515871633779653 -2.40502437922178 0.8234388666290203 37.79588415247248 -0.5929326741186423 0.045069051241728865 8.692441981908075 -3.6397082267291725 -0.21014011217564144 1.1216543326563835 -1.7765420814614274 0.4252389952110728 26.92069879659394 -0.996842959653822 0.12875835229656132 14.718885886706792 2.3054375450364315 -0.8235887193822548 10.192912712912907 -2.267382300018576 0.7214214009212966 35.2956915863466 -1.1490379267853716 0.17203221976830443 17.029388854368424 -1.4564804661231123 -0.14476826799089804 9.58838998845998 -1.5421246777887383 0.3157791465449991 23.1433227661749 -1.2211095720855611 0.19486664653403316 18.13353605802864 4.152193297090475 -3.696384510823914 -13.933357184827205 -11.36822650590829 13.879537745921112 -9.018500163981852 -10.8709775005598 1.8004223063436573 -11.874446796677613 3.989283672968105 -21.604680852294994 25.47337927654872 -11.589445818814179 42.17227972752169 2.044462321070851 -8.49608952704019 -9.034000604752086 -16.767972761680937 0.18152175453705846 -7.130202861345034 -4.911795593231249 4.174347449795223 -22.707124286439953 -20.706500467121153 12.303729160536491 51.52743210601561 -0.1916099045838664 7.902676616416292 -14.704578086652894 11.88316963569828 -0.1101216814752206 -10.317610297221771 3.9778675475730747
0.010006030090153217 -0.9601642303937261 -0.017996681854128838 -2.874286789835464 -0.857818535927386 0.023272737028440172 0.6595724370899153 0.5103166470340684 -0.029533126990288944 1.8418566674196466 4.552926768591057 0.9376337510727571 0 0 0 -0.7995449904763868 -2.2278046753790055 2.7096028146810056 1.0108532666919954 -5.119489894526696 -6.830293766817451 0 0 0 0 0 0 12.805182632554677 -4.839711978161741 29.296400932603177 -30.90292029172645 -48.347184836847184 32.5255424274241 -36.01048977641705 0.14143396467733427 0.4351606500876477 -17.277786508812472 -17.1718033706297 14.256640112625977 2.7052026122464397 -1.5624077294886909 -44.84739544388901 1.6525799657586697 0.27372081880899873 -18.809834243445938 -0.021821555846898252 0.000050281686760959125 0.24377752619306467 1.2754089659456171 -5.376864658252646 -25.720936302723164 2.734306792370753 0.7901428753752614 -32.23238764041608 1.025950274104492 0.10372662443848353 -11.547980432150924 1.4865450153758315 -2.354498202561511 -41.17868834338617 1.790229555511666 0.3227986356158561 -20.443184203907283 0.6592430222805815 0.04257187265265912 -7.39099061013518 0.8195926498436858 -2.1165734337953337 -34.965888407845426 2.19530223968485 0.49391289089994944 -25.358292184413077 1.5837122701192698 0.250812631113898 -17.998760344223037 -8.587716380822696 0.6982384932476536 -3.094660847491798 24.078718866308293 17.798503732585615 3.6339417978883017 -1.0033372364810726 1.8541440913280332 20.408247312390333 -12.31051563605736 -4.255623419376003 -26.88507338576406 62.11281537561819 -54.263019488657065 -52.6027398972651 34.395628759788345 0.12939057328587147 -0.41809265054963257 -1.606659444631064 -31.53051636910721 -5.043958010270131 5.929516317802603 -3.1178943627407287 19.799540739283664 -2.4539680159406605 0.86202251058571 38.705308539869705 -0.6038630019951188 0.04674930833247778 8.853993513003608 -0.8051637400807279 -0.6536018074331736 6.983420226018323 -1.9905426539042892 0.5424027083099052 30.482367407260494 -1.0419663510151442 0.14089243041818095 15.401093180987692 4.435510530245471 -2.446226175932859 18.90550415105728 -2.327335115159737 0.7647166495115517 36.374734485085916 -1.1869863624407768 0.18387147600298673 17.609860825970163 1.4613617178391816 -1.2468034358967266 16.844614297792845 -1.7563440983864227 0.4150606724597821 26.59079410253616 -1.2438742594606313 0.20240473940373027 18.483561359945544 7.939464599181102 -2.2493496605227117 -10.86417522878799 -19.376294020601783 15.576436861132962 -9.123656015209185 -6.922666212845664 4.098131630761384 -14.768053078986428 3.597759772088967 -25.98019255400157 24.638954326904003 -11.952290198052676 46.57389087854149 0.36617567995737005 -6.647814346132546 -0.47561319856501916 -12.905935347786711 1.6810428483432317e-7 -4.208427472410162 0.000002509597611051676 2.3799526848042145 -24.929550826258495 -19.7456092004833 12.237226444272174 50.90618866044679 -0.10768510223918581 8.116581237702242 -5.343756097680478 9.788784317415981 -0.03973074563728427 -8.690714511797225 2.695832854349528
